<?xml version="1.0" encoding="utf-8"?>
<!-- Generator: Adobe Illustrator 27.5.0, SVG Export Plug-In . SVG Version: 6.00 Build 0)  -->
<svg version="1.1" id="Calque_1" xmlns="http://www.w3.org/2000/svg" xmlns:xlink="http://www.w3.org/1999/xlink" x="0px" y="0px"
	 viewBox="0 0 375 374.6" style="enable-background:new 0 0 375 374.6;" xml:space="preserve">
<style type="text/css">
	.st0{fill:#69FF05;}
</style>
<g>
	
		<ellipse id="XMLID_2112_" transform="matrix(0.9796 -0.2011 0.2011 0.9796 -33.8328 41.5253)" class="st0" cx="187.5" cy="187.3" rx="187.5" ry="187.5"/>
	<path id="XMLID_1065_" d="M187.5,99.7c28.5,0,31.9,0.1,43.2,0.6c10.4,0.5,16.1,2.2,19.8,3.7c5,1.9,8.5,4.3,12.3,8
		c3.7,3.7,6.1,7.3,8,12.3c1.5,3.8,3.2,9.4,3.7,19.8c0.5,11.3,0.6,14.6,0.6,43.2s-0.1,31.9-0.6,43.2c-0.5,10.4-2.2,16.1-3.7,19.8
		c-1.9,5-4.3,8.5-8,12.3c-3.7,3.7-7.3,6.1-12.3,8c-3.8,1.5-9.4,3.2-19.8,3.7c-11.3,0.5-14.6,0.6-43.2,0.6c-28.5,0-31.9-0.1-43.2-0.6
		c-10.4-0.5-16.1-2.2-19.8-3.7c-5-1.9-8.5-4.3-12.3-8c-3.7-3.7-6.1-7.3-8-12.3c-1.5-3.8-3.2-9.4-3.7-19.8
		c-0.5-11.3-0.6-14.6-0.6-43.2s0.1-31.9,0.6-43.2c0.5-10.4,2.2-16.1,3.7-19.8c1.9-5,4.3-8.5,8-12.3c3.7-3.7,7.3-6.1,12.3-8
		c3.8-1.5,9.4-3.2,19.8-3.7C155.6,99.8,159,99.7,187.5,99.7 M187.5,80.5c-29,0-32.7,0.1-44,0.6c-11.4,0.5-19.1,2.3-25.9,5
		c-7,2.7-13,6.4-18.9,12.3c-5.9,5.9-9.6,11.9-12.3,18.9c-2.6,6.8-4.4,14.6-5,25.9c-0.5,11.4-0.6,15-0.6,44c0,29,0.1,32.6,0.6,44
		c0.5,11.4,2.3,19.1,5,25.9c2.7,7,6.4,13,12.3,18.9c5.9,5.9,11.9,9.6,18.9,12.3c6.8,2.6,14.6,4.4,25.9,5c11.4,0.5,15,0.6,44,0.6
		c29,0,32.6-0.1,44-0.6c11.4-0.5,19.1-2.3,25.9-5c7-2.7,13-6.4,18.9-12.3c5.9-5.9,9.6-11.9,12.3-18.9c2.6-6.8,4.4-14.6,5-25.9
		c0.5-11.4,0.6-15,0.6-44c0-29-0.1-32.6-0.6-44c-0.5-11.4-2.3-19.1-5-25.9c-2.7-7-6.4-13-12.3-18.9c-5.9-5.9-11.9-9.6-18.9-12.3
		c-6.8-2.6-14.6-4.4-25.9-5C220.1,80.6,216.5,80.5,187.5,80.5"/>
	<path id="XMLID_1053_" d="M187.5,132.5c-30.3,0-54.9,24.6-54.9,54.9c0,30.3,24.6,54.9,54.9,54.9c30.3,0,54.9-24.6,54.9-54.9
		C242.4,157,217.8,132.5,187.5,132.5 M187.5,222.9c-19.7,0-35.6-15.9-35.6-35.6c0-19.7,15.9-35.6,35.6-35.6
		c19.7,0,35.6,15.9,35.6,35.6C223.1,207,207.2,222.9,187.5,222.9"/>
	<path id="XMLID_1052_" d="M257.3,130.3c0,7.1-5.7,12.8-12.8,12.8c-7.1,0-12.8-5.7-12.8-12.8c0-7.1,5.7-12.8,12.8-12.8
		C251.6,117.5,257.3,123.2,257.3,130.3"/>
</g>
</svg>
