<?xml version="1.0" encoding="utf-8"?>
<!-- Generator: Adobe Illustrator 27.5.0, SVG Export Plug-In . SVG Version: 6.00 Build 0)  -->
<svg version="1.1" id="Calque_1" xmlns="http://www.w3.org/2000/svg" xmlns:xlink="http://www.w3.org/1999/xlink" x="0px" y="0px"
	 viewBox="0 0 378 379" style="enable-background:new 0 0 378 379;" xml:space="preserve">
<style type="text/css">
	.st0{fill:#69FF05;}
</style>
<path class="st0" d="M189.5,1.9L189.5,1.9C85.9,1.9,2,85.8,2,189.4v0c0,103.6,83.9,187.5,187.5,187.5h0
	c103.6,0,187.5-83.9,187.5-187.5v0C377,85.8,293.1,1.9,189.5,1.9z"/>
<path d="M280,94H99c-15.2,0-27.6,12.4-27.6,27.6v135.4c0,15.2,12.4,27.6,27.6,27.6h181c15.2,0,27.6-12.4,27.6-27.6V121.7
	C307.6,106.4,295.2,94,280,94z M261.6,121l-72,51.6L119.8,121H261.6z M280,257.7H99c-0.3,0-0.6-0.3-0.6-0.6V138.8l91,67.3l91.2-65.5
	v116.5C280.6,257.4,280.3,257.7,280,257.7z"/>
</svg>
