<?xml version="1.0" encoding="utf-8"?>
<!-- Generator: Adobe Illustrator 27.5.0, SVG Export Plug-In . SVG Version: 6.00 Build 0)  -->
<svg version="1.1" xmlns="http://www.w3.org/2000/svg" xmlns:xlink="http://www.w3.org/1999/xlink" x="0px" y="0px"
	 viewBox="0 0 375 375" style="enable-background:new 0 0 375 375;" xml:space="preserve">
<style type="text/css">
	.st0{fill:#69FF05;}
</style>
<g id="BACKGROUND">
</g>
<g id="OBJECTS">
	<path class="st0" d="M187.5,0L187.5,0C83.9,0,0,83.9,0,187.5v0C0,291.1,83.9,375,187.5,375h0C291.1,375,375,291.1,375,187.5v0
		C375,83.9,291.1,0,187.5,0z"/>
	<path d="M278,92.2H97c-15.2,0-27.6,12.4-27.6,27.6v135.4c0,15.2,12.4,27.6,27.6,27.6h181c15.2,0,27.6-12.4,27.6-27.6V119.8
		C305.6,104.5,293.2,92.2,278,92.2z M259.6,119.2l-72,51.6l-69.9-51.6H259.6z M278,255.8H97c-0.3,0-0.6-0.3-0.6-0.6V136.9l91,67.3
		l91.2-65.5v116.5C278.6,255.6,278.3,255.8,278,255.8z"/>
</g>
<g id="DESIGNED_BY_FREEPIK">
</g>
</svg>
