<?xml version="1.0" encoding="utf-8"?>
<!-- Generator: Adobe Illustrator 27.5.0, SVG Export Plug-In . SVG Version: 6.00 Build 0)  -->
<svg version="1.1" id="Calque_1" xmlns="http://www.w3.org/2000/svg" xmlns:xlink="http://www.w3.org/1999/xlink" x="0px" y="0px"
	 viewBox="0 0 375 374.6" style="enable-background:new 0 0 375 374.6;" xml:space="preserve">
<style type="text/css">
	.st0{fill:#69FF05;}
</style>
<g>
	
		<ellipse id="XMLID_2114_" transform="matrix(0.9796 -0.2011 0.2011 0.9796 -33.8328 41.5252)" class="st0" cx="187.5" cy="187.3" rx="187.5" ry="187.5"/>
	<path id="XMLID_1187_" d="M157.8,305.1h47.4V186.3h33.1l3.5-39.8h-36.6c0,0,0-14.8,0-22.6c0-9.4,1.9-13.1,10.9-13.1
		c7.3,0,25.7,0,25.7,0V69.5c0,0-27.1,0-32.8,0c-35.3,0-51.2,15.5-51.2,45.3c0,25.9,0,31.7,0,31.7h-24.7v40.3h24.7V305.1z"/>
</g>
</svg>
