<?xml version="1.0" encoding="utf-8"?>
<!-- Generator: Adobe Illustrator 27.5.0, SVG Export Plug-In . SVG Version: 6.00 Build 0)  -->
<svg version="1.1" id="Calque_1" xmlns="http://www.w3.org/2000/svg" xmlns:xlink="http://www.w3.org/1999/xlink" x="0px" y="0px"
	 viewBox="0 0 375 374.6" style="enable-background:new 0 0 375 374.6;" xml:space="preserve">
<style type="text/css">
	.st0{fill:#69FF05;}
</style>
<g>
	
		<ellipse id="XMLID_1341_" transform="matrix(0.7071 -0.7071 0.7071 0.7071 -77.3971 187.3887)" class="st0" cx="187.5" cy="187.1" rx="187.5" ry="187.5"/>
	<path id="XMLID_1190_" d="M310.2,125.1c-2.9-11.1-11.6-19.8-22.6-22.8c-20-5.4-100.1-5.4-100.1-5.4s-80.1,0-100.1,5.4
		c-11,3-19.7,11.7-22.6,22.8c-5.4,20.1-5.4,62-5.4,62s0,41.9,5.4,62c2.9,11.1,11.6,19.8,22.6,22.8c20,5.4,100.1,5.4,100.1,5.4
		s80.1,0,100.1-5.4c11-3,19.7-11.7,22.6-22.8c5.4-20.1,5.4-62,5.4-62S315.6,145.2,310.2,125.1z M161.3,225.2V149l66.9,38.1
		L161.3,225.2z"/>
</g>
</svg>
